<mxfile host="65bd71144e">
    <diagram id="IPa30860El38jDwV23S9" name="第 1 页">
        <mxGraphModel dx="1491" dy="1045" grid="1" gridSize="10" guides="1" tooltips="1" connect="1" arrows="1" fold="1" page="1" pageScale="1" pageWidth="1169" pageHeight="827" math="0" shadow="0">
            <root>
                <mxCell id="0"/>
                <mxCell id="1" parent="0"/>
                <mxCell id="4" value="" style="rounded=0;whiteSpace=wrap;html=1;" vertex="1" parent="1">
                    <mxGeometry x="224" y="480" width="720" height="160" as="geometry"/>
                </mxCell>
                <mxCell id="5" value="Core" style="text;html=1;strokeColor=none;fillColor=none;align=center;verticalAlign=middle;whiteSpace=wrap;rounded=0;fontSize=22;" vertex="1" parent="1">
                    <mxGeometry x="224" y="480" width="80" height="50" as="geometry"/>
                </mxCell>
                <mxCell id="6" value="Math" style="rounded=0;whiteSpace=wrap;html=1;fontSize=22;" vertex="1" parent="1">
                    <mxGeometry x="264" y="544" width="120" height="60" as="geometry"/>
                </mxCell>
                <mxCell id="7" value="Date Structures and Containers" style="rounded=0;whiteSpace=wrap;html=1;fontSize=22;" vertex="1" parent="1">
                    <mxGeometry x="414" y="544" width="220" height="60" as="geometry"/>
                </mxCell>
                <mxCell id="8" value="Memory Management" style="rounded=0;whiteSpace=wrap;html=1;fontSize=22;" vertex="1" parent="1">
                    <mxGeometry x="669" y="544" width="185" height="60" as="geometry"/>
                </mxCell>
                <mxCell id="9" value="&lt;font color=&quot;#ffffff&quot; style=&quot;font-size: 30px&quot;&gt;Platform(Windows+Vulkan for now)&lt;/font&gt;" style="rounded=1;whiteSpace=wrap;html=1;strokeWidth=2;fillWeight=4;hachureGap=8;hachureAngle=45;fillColor=#1ba1e2;sketch=1;fontSize=22;" vertex="1" parent="1">
                    <mxGeometry x="149" y="670" width="870" height="120" as="geometry"/>
                </mxCell>
                <mxCell id="10" value="" style="rounded=0;whiteSpace=wrap;html=1;fontSize=30;fontColor=#FFFFFF;" vertex="1" parent="1">
                    <mxGeometry x="104" y="160" width="960" height="140" as="geometry"/>
                </mxCell>
                <mxCell id="11" value="Function" style="text;html=1;strokeColor=none;fillColor=none;align=center;verticalAlign=middle;whiteSpace=wrap;rounded=0;fontSize=30;fontColor=#FFFFFF;" vertex="1" parent="1">
                    <mxGeometry x="104" y="170" width="160" height="30" as="geometry"/>
                </mxCell>
                <mxCell id="12" value="" style="rounded=0;whiteSpace=wrap;html=1;fontSize=30;fontColor=#FFFFFF;" vertex="1" parent="1">
                    <mxGeometry x="344" y="310" width="480" height="160" as="geometry"/>
                </mxCell>
            </root>
        </mxGraphModel>
    </diagram>
</mxfile>